<?xml version="1.0" standalone="no"?>
<!DOCTYPE svg PUBLIC "-//W3C//DTD SVG 20010904//EN"
 "http://www.w3.org/TR/2001/REC-SVG-20010904/DTD/svg10.dtd">
<svg version="1.0" xmlns="http://www.w3.org/2000/svg"
 width="700.000000pt" height="700.000000pt" viewBox="0 0 700.000000 700.000000"
 preserveAspectRatio="xMidYMid meet">
<metadata>
Created by potrace 1.14, written by Peter Selinger 2001-2017
</metadata>
<g transform="translate(0.000000,700.000000) scale(0.100000,-0.100000)"
fill="#000000" stroke="none">
<path d="M1665 6989 c-512 -53 -989 -325 -1295 -737 -174 -233 -284 -487 -342
-787 -22 -109 -22 -119 -26 -1890 -3 -1853 -3 -1893 39 -2100 76 -376 298
-759 587 -1010 291 -254 654 -413 1034 -454 128 -14 3544 -15 3676 -1 473 50
923 287 1221 645 244 293 390 635 430 1007 15 134 15 3541 0 3676 -95 876
-782 1559 -1660 1652 -115 12 -3547 11 -3664 -1z m1910 -300 c534 -286 998
-601 1370 -930 433 -382 1053 -1136 1696 -2061 l139 -201 0 -351 0 -351 -77
85 c-127 141 -497 512 -668 670 -501 463 -1011 867 -1535 1215 -413 274 -852
497 -1440 730 -637 252 -1454 506 -2165 672 -110 25 -202 48 -204 50 -7 5 97
108 169 168 201 164 457 291 707 350 169 40 234 43 1048 44 l790 1 170 -91z
m1655 80 c826 -102 1452 -738 1540 -1562 7 -60 10 -111 7 -113 -3 -3 -56 41
-119 98 -476 433 -866 758 -1098 914 -219 147 -593 364 -975 564 -235 124
-258 110 180 110 209 0 419 -5 465 -11z m-4270 -1261 c1612 -609 2923 -1447
3678 -2353 76 -91 384 -500 523 -695 409 -572 720 -1084 883 -1450 60 -136
126 -322 126 -355 0 -28 -199 -170 -337 -239 l-72 -36 -42 78 c-231 424 -497
772 -898 1173 -736 735 -1531 1221 -2516 1538 -549 178 -1254 324 -1850 386
-82 8 -169 18 -193 21 l-42 5 0 782 c0 464 4 817 10 867 18 151 64 338 110
444 l19 46 208 -71 c114 -39 291 -102 393 -141z m-575 -3788 c173 -69 412
-198 595 -320 385 -258 854 -728 1129 -1132 l32 -48 -133 0 c-308 0 -569 59
-819 185 -522 262 -871 748 -954 1327 l-7 48 38 -14 c22 -8 75 -28 119 -46z"/>
</g>
</svg>
